<svg xmlns="http://www.w3.org/2000/svg"
  viewBox="0 0 100 100" style="display:block;width:100%;height:100%">
  <!-- main rock body — irregular rounded shape -->
  <path d="M 22,72 C 10,65 8,45 18,32 C 25,22 38,14 55,12 C 70,10 82,18 88,32 C 94,46 90,62 80,72 C 70,82 55,86 40,84 C 30,82 24,78 22,72 Z"
    fill="#8A8A8A" stroke="#5C5C5C" stroke-width="3" />
  <!-- highlight/lighter face -->
  <path d="M 28,62 C 18,54 20,38 30,30 C 38,24 50,20 60,22 C 68,24 72,32 68,42 C 64,52 48,58 36,58 C 32,58 30,64 28,62 Z"
    fill="#9E9E9E" />
  <!-- small chip detail -->
  <circle cx="68" cy="56" r="5" fill="#7A7A7A" />
</svg>
