<svg xmlns="http://www.w3.org/2000/svg"
  viewBox="0 0 100 100" style="display:block;width:100%;height:100%">
  <!-- rounder, squatter rock -->
  <path d="M 18,68 C 8,58 12,38 24,28 C 36,18 56,14 72,20 C 86,26 92,44 88,60 C 84,74 68,84 50,84 C 34,84 22,76 18,68 Z"
    fill="#8A8A8A" stroke="#5C5C5C" stroke-width="3" />
  <!-- highlight -->
  <path d="M 30,56 C 22,48 26,36 36,30 C 44,26 56,24 62,28 C 66,32 64,42 58,48 C 52,54 38,58 30,56 Z"
    fill="#9E9E9E" />
  <!-- chip -->
  <circle cx="74" cy="52" r="4" fill="#7A7A7A" />
</svg>
