<svg xmlns="http://www.w3.org/2000/svg"
  viewBox="0 0 100 100" style="display:block;width:100%;height:100%">
  <!-- angular, chunky rock -->
  <path d="M 24,74 C 12,66 10,48 16,34 C 22,20 36,12 50,10 C 66,8 80,14 88,28 C 94,40 92,58 84,70 C 74,82 38,84 24,74 Z"
    fill="#8A8A8A" stroke="#5C5C5C" stroke-width="3" />
  <!-- highlight -->
  <path d="M 32,58 C 24,50 26,36 34,26 C 42,18 54,16 62,20 C 68,24 66,36 60,46 C 52,54 38,60 32,58 Z"
    fill="#9E9E9E" />
  <!-- chip -->
  <circle cx="72" cy="58" r="5" fill="#7A7A7A" />
</svg>
