<svg xmlns="http://www.w3.org/2000/svg"
  viewBox="0 0 100 100" style="display:block;width:100%;height:100%">
  <!-- taller, narrower rock -->
  <path d="M 28,78 C 16,70 14,50 20,36 C 26,22 40,12 52,10 C 64,8 76,16 82,30 C 88,44 86,66 76,76 C 66,86 42,86 28,78 Z"
    fill="#8A8A8A" stroke="#5C5C5C" stroke-width="3" />
  <!-- highlight -->
  <path d="M 34,60 C 26,52 28,38 36,28 C 42,22 52,18 58,22 C 62,26 60,38 54,48 C 48,56 38,62 34,60 Z"
    fill="#9E9E9E" />
  <!-- chip -->
  <circle cx="64" cy="62" r="4.5" fill="#7A7A7A" />
</svg>
