<svg xmlns="http://www.w3.org/2000/svg"
  viewBox="0 0 100 100" style="display:block;width:100%;height:100%">
  <!-- wide, flat rock -->
  <path d="M 14,66 C 6,56 10,40 22,32 C 32,24 48,18 66,16 C 80,14 92,24 94,40 C 96,56 86,72 70,78 C 54,84 28,80 14,66 Z"
    fill="#8A8A8A" stroke="#5C5C5C" stroke-width="3" />
  <!-- highlight -->
  <path d="M 26,54 C 20,46 24,36 34,30 C 44,24 58,22 66,26 C 72,30 70,40 62,46 C 54,52 34,56 26,54 Z"
    fill="#9E9E9E" />
  <!-- chips -->
  <circle cx="78" cy="54" r="3.5" fill="#7A7A7A" />
  <circle cx="38" cy="68" r="3" fill="#7A7A7A" />
</svg>
